<svg width="29.000000" height="25.000000" viewBox="0 0 29 25" fill="none" xmlns="http://www.w3.org/2000/svg" xmlns:xlink="http://www.w3.org/1999/xlink">
	<desc>
			Created with Pixso.
	</desc>
	<defs/>
	<path id="Path" d="M8.05 8.45C7.86 8.08 7.97 7.64 8.32 7.35L9.6 6.27C10.66 5.37 10.66 4.11 9.74 3.33L7.89 1.77C6.66 0.74 4.68 0.74 3.45 1.77L2.42 2.64C1.26 3.63 0.77 5.05 1.09 6.46C1.86 9.93 4.25 13.73 8.1 16.99C11.94 20.24 16.44 22.26 20.54 22.92C22.21 23.18 23.89 22.77 25.05 21.79L26.07 20.92C27.3 19.88 27.3 18.2 26.07 17.16L24.23 15.6C23.31 14.82 21.82 14.82 20.9 15.6L19.48 16.8C19.14 17.09 18.62 17.19 18.18 17.02C16.09 16.24 14.04 15.07 12.2 13.52C10.36 11.96 8.97 10.22 8.05 8.45Z" stroke="#737BE1" stroke-opacity="1.000000" stroke-width="3.000000" stroke-linejoin="round"/>
</svg>
